<svg width="120" height="43" viewBox="0 0 120 43" fill="none" xmlns="http://www.w3.org/2000/svg">
<path d="M0.640137 42V28.12H1.96014L7.84014 37.78H6.94014L12.8201 28.12H14.1401V42H12.2601V31.42L12.7001 31.54L8.06014 39.16H6.74014L2.10014 31.54L2.52014 31.42V42H0.640137Z" fill="white"/>
<path d="M24.3975 42L30.0775 28.12H31.4375L37.0975 42H35.0575L30.3975 30.26H31.0975L26.3975 42H24.3975ZM27.0975 38.86V37.22H34.3975V38.86H27.0975Z" fill="white"/>
<path d="M50.6564 42.2C49.5631 42.2 48.6297 42 47.8564 41.6C47.0831 41.2 46.3964 40.62 45.7964 39.86L47.0764 38.58C47.5164 39.1933 48.0231 39.66 48.5964 39.98C49.1697 40.2867 49.8764 40.44 50.7164 40.44C51.5431 40.44 52.2031 40.26 52.6964 39.9C53.2031 39.54 53.4564 39.0467 53.4564 38.42C53.4564 37.9 53.3364 37.48 53.0964 37.16C52.8564 36.84 52.5297 36.58 52.1164 36.38C51.7164 36.1667 51.2764 35.98 50.7964 35.82C50.3164 35.6467 49.8364 35.4667 49.3564 35.28C48.8764 35.08 48.4364 34.84 48.0364 34.56C47.6364 34.2667 47.3097 33.8867 47.0564 33.42C46.8164 32.9533 46.6964 32.3667 46.6964 31.66C46.6964 30.8733 46.8831 30.2067 47.2564 29.66C47.6431 29.1 48.1631 28.6733 48.8164 28.38C49.4831 28.0733 50.2297 27.92 51.0564 27.92C51.9631 27.92 52.7764 28.1 53.4964 28.46C54.2164 28.8067 54.8031 29.2667 55.2564 29.84L53.9764 31.12C53.5631 30.64 53.1164 30.28 52.6364 30.04C52.1697 29.8 51.6297 29.68 51.0164 29.68C50.2697 29.68 49.6764 29.8467 49.2364 30.18C48.7964 30.5 48.5764 30.9533 48.5764 31.54C48.5764 32.0067 48.6964 32.3867 48.9364 32.68C49.1897 32.96 49.5164 33.2 49.9164 33.4C50.3164 33.6 50.7564 33.7867 51.2364 33.96C51.7297 34.12 52.2164 34.3 52.6964 34.5C53.1764 34.7 53.6164 34.9533 54.0164 35.26C54.4164 35.5667 54.7364 35.9667 54.9764 36.46C55.2297 36.94 55.3564 37.5467 55.3564 38.28C55.3564 39.5067 54.9297 40.4667 54.0764 41.16C53.2364 41.8533 52.0964 42.2 50.6564 42.2Z" fill="white"/>
<path d="M64.4209 42L70.1009 28.12H71.4609L77.1209 42H75.0809L70.4209 30.26H71.1209L66.4209 42H64.4209ZM67.1209 38.86V37.22H74.4209V38.86H67.1209Z" fill="white"/>
<path d="M95.7905 42L88.7905 34.76L95.6505 28.12H98.0904L90.6905 35.24V34.2L98.2905 42H95.7905ZM87.2104 42V28.12H89.0904V42H87.2104Z" fill="white"/>
<path d="M106.749 42L112.429 28.12H113.789L119.449 42H117.409L112.749 30.26H113.449L108.749 42H106.749ZM109.449 38.86V37.22H116.749V38.86H109.449Z" fill="white"/>
<path d="M48.0626 10.5C48.0626 12.0102 48.3585 13.5056 48.9332 14.9009C49.5081 16.2961 50.3505 17.5639 51.4127 18.6317C52.4747 19.6996 53.7356 20.5466 55.1233 21.1246C56.5109 21.7025 57.9981 22 59.5001 22C61.0021 22 62.4895 21.7025 63.8771 21.1246C65.2648 20.5466 66.5257 19.6996 67.5877 18.6317C68.6497 17.5639 69.4922 16.2961 70.067 14.9009C70.6418 13.5056 70.9377 12.0102 70.9377 10.5H67.1299C67.1299 11.5075 66.9326 12.505 66.5492 13.4358C66.1657 14.3665 65.6038 15.2122 64.8953 15.9246C64.1867 16.637 63.3456 17.202 62.42 17.5875C61.4943 17.9731 60.5021 18.1714 59.5001 18.1714C58.4982 18.1714 57.5061 17.9731 56.5804 17.5875C55.6547 17.202 54.8136 16.637 54.1051 15.9246C53.3966 15.2122 52.8346 14.3665 52.4512 13.4358C52.0677 12.505 51.8704 11.5075 51.8704 10.5H48.0626Z" fill="white"/>
<path d="M67.1252 11.5C67.1252 9.98979 67.421 8.49438 67.9958 7.09914C68.5705 5.7039 69.4131 4.43615 70.4751 3.36827C71.5372 2.3004 72.7981 1.45331 74.1857 0.875386C75.5734 0.297456 77.0607 -6.6013e-08 78.5627 0C80.0646 6.6013e-08 81.5519 0.297457 82.9396 0.875386C84.3273 1.45332 85.5881 2.3004 86.6502 3.36827C87.7122 4.43615 88.5548 5.7039 89.1295 7.09914C89.7044 8.49438 90.0001 9.98981 90.0001 11.5H86.1925C86.1925 10.4926 85.9951 9.495 85.6117 8.56425C85.2283 7.6335 84.6663 6.7878 83.9578 6.07544C83.2493 5.36307 82.4082 4.798 81.4825 4.41247C80.5568 4.02694 79.5646 3.82851 78.5627 3.82851C77.5607 3.82851 76.5686 4.02694 75.6429 4.41247C74.7172 4.798 73.876 5.36307 73.1676 6.07544C72.4591 6.7878 71.897 7.6335 71.5136 8.56425C71.1302 9.495 70.9328 10.4926 70.9328 11.5H67.1252Z" fill="white"/>
<path d="M29.0001 11.5C29.0001 9.98979 29.296 8.49438 29.8708 7.09914C30.4456 5.7039 31.288 4.43615 32.3501 3.36827C33.4122 2.3004 34.673 1.45331 36.0607 0.875386C37.4484 0.297456 38.9356 -6.6013e-08 40.4377 0C41.9397 6.6013e-08 43.427 0.297457 44.8145 0.875386C46.2022 1.45332 47.4631 2.3004 48.5252 3.36827C49.5873 4.43615 50.4297 5.7039 51.0046 7.09914C51.5793 8.49438 51.8752 9.98981 51.8752 11.5H48.0674C48.0674 10.4926 47.8701 9.495 47.4866 8.56425C47.1032 7.6335 46.5412 6.7878 45.8327 6.07544C45.1242 5.36307 44.2831 4.798 43.3574 4.41247C42.4317 4.02694 41.4396 3.82851 40.4377 3.82851C39.4357 3.82851 38.4435 4.02694 37.5178 4.41247C36.5922 4.798 35.7511 5.36307 35.0426 6.07544C34.3341 6.7878 33.7721 7.6335 33.3886 8.56425C33.0052 9.495 32.8078 10.4926 32.8078 11.5H29.0001Z" fill="white"/>
</svg>
