<svg width="43" height="16" viewBox="0 0 43 16" fill="none" xmlns="http://www.w3.org/2000/svg">
<path d="M13.4375 7.63637C13.4375 8.73469 13.6461 9.82228 14.0512 10.837C14.4564 11.8517 15.0503 12.7737 15.799 13.5504C16.5477 14.327 17.4365 14.943 18.4147 15.3634C19.3929 15.7836 20.4412 16 21.5 16C22.5588 16 23.6072 15.7836 24.5854 15.3634C25.5636 14.943 26.4524 14.327 27.2011 13.5504C27.9497 12.7737 28.5436 11.8517 28.9488 10.837C29.3539 9.82228 29.5625 8.73469 29.5625 7.63637H26.8784C26.8784 8.36907 26.7393 9.09456 26.469 9.77149C26.1987 10.4483 25.8026 11.0634 25.3031 11.5815C24.8036 12.0996 24.2107 12.5105 23.5583 12.7909C22.9057 13.0713 22.2063 13.2156 21.5 13.2156C20.7937 13.2156 20.0944 13.0713 19.4418 12.7909C18.7893 12.5105 18.1964 12.0996 17.6969 11.5815C17.1975 11.0634 16.8013 10.4483 16.531 9.77149C16.2608 9.09456 16.1216 8.36907 16.1216 7.63637H13.4375Z" fill="#2C2727"/>
<path d="M26.875 8.36365C26.875 7.2653 27.0835 6.17773 27.4888 5.16301C27.8939 4.14829 28.4878 3.22629 29.2365 2.44965C29.9851 1.67302 30.8739 1.05695 31.8521 0.636644C32.8303 0.216331 33.8788 -4.80094e-08 34.9376 0C35.9963 4.80094e-08 37.0447 0.216332 38.0229 0.636644C39.0011 1.05696 39.8899 1.67302 40.6386 2.44965C41.3872 3.22629 41.9812 4.14829 42.3863 5.16301C42.7915 6.17773 43 7.26531 43 8.36365H40.3159C40.3159 7.63096 40.1768 6.90545 39.9065 6.22855C39.6362 5.55164 39.24 4.93658 38.7406 4.4185C38.2412 3.90041 37.6483 3.48945 36.9957 3.20907C36.3432 2.92868 35.6438 2.78437 34.9376 2.78437C34.2312 2.78437 33.5318 2.92868 32.8793 3.20907C32.2267 3.48945 31.6338 3.90041 31.1344 4.4185C30.635 4.93658 30.2388 5.55164 29.9685 6.22855C29.6982 6.90545 29.5591 7.63096 29.5591 8.36365H26.875Z" fill="#2C2727"/>
<path d="M0 8.36365C0 7.2653 0.208543 6.17773 0.613722 5.16301C1.0189 4.14829 1.61278 3.22629 2.36145 2.44965C3.11013 1.67302 3.99893 1.05695 4.97712 0.636644C5.9553 0.216331 7.00372 -4.80094e-08 8.06252 0C9.12131 4.80094e-08 10.1697 0.216332 11.1479 0.636644C12.1261 1.05696 13.0149 1.67302 13.7636 2.44965C14.5123 3.22629 15.1061 4.14829 15.5113 5.16301C15.9165 6.17773 16.125 7.26531 16.125 8.36365H13.4409C13.4409 7.63096 13.3018 6.90545 13.0315 6.22855C12.7612 5.55164 12.365 4.93658 11.8656 4.4185C11.3662 3.90041 10.7733 3.48945 10.1207 3.20907C9.46815 2.92868 8.76878 2.78437 8.06252 2.78437C7.35621 2.78437 6.65682 2.92868 6.00429 3.20907C5.35175 3.48945 4.75884 3.90041 4.25942 4.4185C3.75998 4.93658 3.36382 5.55164 3.09352 6.22855C2.82323 6.90545 2.68412 7.63096 2.68412 8.36365H0Z" fill="#2C2727"/>
</svg>
